<?xml version="1.0" encoding="UTF-8"?>
      <mxfile host="codeviz.app" modified="2025-01-08T04:12:28.480Z" agent="CodeViz Exporter" version="14.6.5" type="device">
        <diagram id="codeviz-diagram" name="System Diagram">
          <mxGraphModel dx="1000" dy="1000" grid="1" gridSize="10" guides="1" tooltips="1" connect="1" arrows="1" fold="1" page="1" pageScale="1" pageWidth="1169" pageHeight="827" math="0" shadow="0">
            <root>
              <mxCell id="0"/>
              <mxCell id="1" parent="0"/>
              <mxCell id="subGraph4" value="" style="html=1;whiteSpace=wrap;container=1;fillColor=#dae8fc;strokeColor=#6c8ebf;dashed=1;fillOpacity=20;strokeWidth=2;containerType=none;recursiveResize=0;movable=1;resizable=1;autosize=0;dropTarget=0" vertex="1" parent="subGraph5">
                <mxGeometry x="190" y="95" width="380" height="320" as="geometry"/>
              </mxCell>
              <mxCell id="subGraph4_label" value="Data Components" style="edgeLabel;html=1;align=center;verticalAlign=middle;resizable=0;labelBackgroundColor=white;spacing=5" vertex="1" parent="subGraph5">
                <mxGeometry x="198" y="103" width="304" height="24" as="geometry"/>
              </mxCell>
<mxCell id="subGraph2" value="" style="html=1;whiteSpace=wrap;container=1;fillColor=#dae8fc;strokeColor=#6c8ebf;dashed=1;fillOpacity=20;strokeWidth=2;containerType=none;recursiveResize=0;movable=1;resizable=1;autosize=0;dropTarget=0" vertex="1" parent="subGraph3">
                <mxGeometry x="50" y="195" width="366" height="540" as="geometry"/>
              </mxCell>
              <mxCell id="subGraph2_label" value="Core Components" style="edgeLabel;html=1;align=center;verticalAlign=middle;resizable=0;labelBackgroundColor=white;spacing=5" vertex="1" parent="subGraph3">
                <mxGeometry x="58" y="203" width="290" height="24" as="geometry"/>
              </mxCell>
<mxCell id="subGraph0" value="" style="html=1;whiteSpace=wrap;container=1;fillColor=#dae8fc;strokeColor=#6c8ebf;dashed=1;fillOpacity=20;strokeWidth=2;containerType=none;recursiveResize=0;movable=1;resizable=1;autosize=0;dropTarget=0" vertex="1" parent="subGraph1">
                <mxGeometry x="50" y="195" width="520" height="330" as="geometry"/>
              </mxCell>
              <mxCell id="subGraph0_label" value="Admin UI Components" style="edgeLabel;html=1;align=center;verticalAlign=middle;resizable=0;labelBackgroundColor=white;spacing=5" vertex="1" parent="subGraph1">
                <mxGeometry x="58" y="203" width="444" height="24" as="geometry"/>
              </mxCell>
<mxCell id="subGraph5" value="" style="html=1;whiteSpace=wrap;container=1;fillColor=#dae8fc;strokeColor=#6c8ebf;dashed=1;fillOpacity=20;strokeWidth=2;containerType=none;recursiveResize=0;movable=1;resizable=1;autosize=0;dropTarget=0" vertex="1" parent="subGraph6">
                <mxGeometry x="50" y="1460" width="590" height="545" as="geometry"/>
              </mxCell>
              <mxCell id="subGraph5_label" value="Data Layer" style="edgeLabel;html=1;align=center;verticalAlign=middle;resizable=0;labelBackgroundColor=white;spacing=5" vertex="1" parent="subGraph6">
                <mxGeometry x="58" y="1468" width="514" height="24" as="geometry"/>
              </mxCell>
<mxCell id="subGraph3" value="" style="html=1;whiteSpace=wrap;container=1;fillColor=#dae8fc;strokeColor=#6c8ebf;dashed=1;fillOpacity=20;strokeWidth=2;containerType=none;recursiveResize=0;movable=1;resizable=1;autosize=0;dropTarget=0" vertex="1" parent="subGraph6">
                <mxGeometry x="270" y="675" width="426" height="755" as="geometry"/>
              </mxCell>
              <mxCell id="subGraph3_label" value="Backend Layer" style="edgeLabel;html=1;align=center;verticalAlign=middle;resizable=0;labelBackgroundColor=white;spacing=5" vertex="1" parent="subGraph6">
                <mxGeometry x="278" y="683" width="350" height="24" as="geometry"/>
              </mxCell>
<mxCell id="subGraph1" value="" style="html=1;whiteSpace=wrap;container=1;fillColor=#dae8fc;strokeColor=#6c8ebf;dashed=1;fillOpacity=20;strokeWidth=2;containerType=none;recursiveResize=0;movable=1;resizable=1;autosize=0;dropTarget=0" vertex="1" parent="subGraph6">
                <mxGeometry x="65" y="95" width="580" height="545" as="geometry"/>
              </mxCell>
              <mxCell id="subGraph1_label" value="Frontend Layer" style="edgeLabel;html=1;align=center;verticalAlign=middle;resizable=0;labelBackgroundColor=white;spacing=5" vertex="1" parent="subGraph6">
                <mxGeometry x="73" y="103" width="504" height="24" as="geometry"/>
              </mxCell>
<mxCell id="subGraph6" value="" style="html=1;whiteSpace=wrap;container=1;fillColor=#dae8fc;strokeColor=#6c8ebf;dashed=1;fillOpacity=20;strokeWidth=2;containerType=none;recursiveResize=0;movable=1;resizable=1;autosize=0;dropTarget=0" vertex="1" parent="1">
                <mxGeometry x="32" y="202" width="718" height="2072" as="geometry"/>
              </mxCell>
              <mxCell id="subGraph6_label" value="Veterinary System" style="edgeLabel;html=1;align=center;verticalAlign=middle;resizable=0;labelBackgroundColor=white;spacing=5" vertex="1" parent="1">
                <mxGeometry x="40" y="210" width="642" height="24" as="geometry"/>
              </mxCell>
              <mxCell id="User" value="User" style="rounded=1;whiteSpace=wrap;html=1;fillColor=#f5f5f5" vertex="1" parent="1">
                    <mxGeometry x="567" y="12" width="120" height="60" as="geometry"/>
                  </mxCell>
<mxCell id="Admin" value="Admin" style="rounded=1;whiteSpace=wrap;html=1;fillColor=#f5f5f5" vertex="1" parent="1">
                    <mxGeometry x="277" y="12" width="120" height="60" as="geometry"/>
                  </mxCell>
<mxCell id="AdminPanel" value="Admin Panel&lt;br&gt;Filament" style="rounded=1;whiteSpace=wrap;html=1;fillColor=#f5f5f5" vertex="1" parent="subGraph1">
                    <mxGeometry x="220" y="120" width="120" height="60" as="geometry"/>
                  </mxCell>
<mxCell id="WebServer" value="Web Server&lt;br&gt;Laravel" style="rounded=1;whiteSpace=wrap;html=1;fillColor=#f5f5f5" vertex="1" parent="subGraph3">
                    <mxGeometry x="206" y="120" width="120" height="60" as="geometry"/>
                  </mxCell>
<mxCell id="Database" value="Database&lt;br&gt;MySQL/SQLite" style="rounded=1;whiteSpace=wrap;html=1;fillColor=#f5f5f5" vertex="1" parent="subGraph5">
                    <mxGeometry x="360" y="450" width="120" height="60" as="geometry"/>
                  </mxCell>
<mxCell id="Cache" value="Cache Store&lt;br&gt;Redis" style="rounded=1;whiteSpace=wrap;html=1;fillColor=#f5f5f5" vertex="1" parent="subGraph5">
                    <mxGeometry x="40" y="125" width="120" height="60" as="geometry"/>
                  </mxCell>
<mxCell id="PatientManagement" value="Patient Management&lt;br&gt;Filament Resources" style="rounded=1;whiteSpace=wrap;html=1;fillColor=#f5f5f5" vertex="1" parent="subGraph0">
                    <mxGeometry x="320" y="120" width="120" height="60" as="geometry"/>
                  </mxCell>
<mxCell id="TreatmentManager" value="Treatment Manager&lt;br&gt;Filament RelationManager" style="rounded=1;whiteSpace=wrap;html=1;fillColor=#f5f5f5" vertex="1" parent="subGraph0">
                    <mxGeometry x="40" y="120" width="120" height="60" as="geometry"/>
                  </mxCell>
<mxCell id="LanguageSwitcher" value="Language Switcher&lt;br&gt;FilamentLanguageSwitch" style="rounded=1;whiteSpace=wrap;html=1;fillColor=#f5f5f5" vertex="1" parent="subGraph0">
                    <mxGeometry x="180" y="120" width="120" height="60" as="geometry"/>
                  </mxCell>
<mxCell id="Forms" value="Forms System&lt;br&gt;Filament Forms" style="rounded=1;whiteSpace=wrap;html=1;fillColor=#f5f5f5" vertex="1" parent="subGraph0">
                    <mxGeometry x="140" y="230" width="120" height="60" as="geometry"/>
                  </mxCell>
<mxCell id="Tables" value="Tables System&lt;br&gt;Filament Tables" style="rounded=1;whiteSpace=wrap;html=1;fillColor=#f5f5f5" vertex="1" parent="subGraph0">
                    <mxGeometry x="280" y="230" width="120" height="60" as="geometry"/>
                  </mxCell>
<mxCell id="Router" value="Router&lt;br&gt;Laravel Routes" style="rounded=1;whiteSpace=wrap;html=1;fillColor=#f5f5f5" vertex="1" parent="subGraph2">
                    <mxGeometry x="166" y="120" width="120" height="60" as="geometry"/>
                  </mxCell>
<mxCell id="Controllers" value="Controllers&lt;br&gt;Laravel Controllers" style="rounded=1;whiteSpace=wrap;html=1;fillColor=#f5f5f5" vertex="1" parent="subGraph2">
                    <mxGeometry x="146" y="220" width="120" height="60" as="geometry"/>
                  </mxCell>
<mxCell id="Models" value="Domain Models&lt;br&gt;Eloquent ORM" style="rounded=1;whiteSpace=wrap;html=1;fillColor=#f5f5f5" vertex="1" parent="subGraph2">
                    <mxGeometry x="110" y="340" width="120" height="60" as="geometry"/>
                  </mxCell>
<mxCell id="ServiceProviders" value="Service Providers&lt;br&gt;Laravel Providers" style="rounded=1;whiteSpace=wrap;html=1;fillColor=#f5f5f5" vertex="1" parent="subGraph2">
                    <mxGeometry x="40" y="440" width="120" height="60" as="geometry"/>
                  </mxCell>
<mxCell id="Migrations" value="Database Migrations&lt;br&gt;Laravel Schema" style="rounded=1;whiteSpace=wrap;html=1;fillColor=#f5f5f5" vertex="1" parent="subGraph4">
                    <mxGeometry x="40" y="220" width="120" height="60" as="geometry"/>
                  </mxCell>
<mxCell id="ModelRelations" value="Model Relations&lt;br&gt;Eloquent Relations" style="rounded=1;whiteSpace=wrap;html=1;fillColor=#f5f5f5" vertex="1" parent="subGraph4">
                    <mxGeometry x="180" y="120" width="120" height="60" as="geometry"/>
                  </mxCell>
<mxCell id="QueryBuilder" value="Query Builder&lt;br&gt;Eloquent" style="rounded=1;whiteSpace=wrap;html=1;fillColor=#f5f5f5" vertex="1" parent="subGraph4">
                    <mxGeometry x="180" y="220" width="120" height="60" as="geometry"/>
                  </mxCell>
              <mxCell id="edge-L_User_WebServer_0" style="edgeStyle=orthogonalEdgeStyle;rounded=1;orthogonalLoop=1;jettySize=auto;html=1;strokeColor=#808080;strokeWidth=2;jumpStyle=arc;jumpSize=10;spacing=15;labelBackgroundColor=white;labelBorderColor=none" edge="1" parent="1" source="User" target="WebServer">
                  <mxGeometry relative="1" as="geometry"/>
                </mxCell>
                <mxCell id="edge-L_User_WebServer_0_label" value="Accesses" style="edgeLabel;html=1;align=center;verticalAlign=middle;resizable=0;points=[];" vertex="1" connectable="0" parent="edge-L_User_WebServer_0">
                  <mxGeometry x="-0.2" y="10" relative="1" as="geometry">
                    <mxPoint as="offset"/>
                  </mxGeometry>
                </mxCell>
<mxCell id="edge-L_Admin_AdminPanel_1" style="edgeStyle=orthogonalEdgeStyle;rounded=1;orthogonalLoop=1;jettySize=auto;html=1;strokeColor=#808080;strokeWidth=2;jumpStyle=arc;jumpSize=10;spacing=15;labelBackgroundColor=white;labelBorderColor=none" edge="1" parent="1" source="Admin" target="AdminPanel">
                  <mxGeometry relative="1" as="geometry"/>
                </mxCell>
                <mxCell id="edge-L_Admin_AdminPanel_1_label" value="Manages" style="edgeLabel;html=1;align=center;verticalAlign=middle;resizable=0;points=[];" vertex="1" connectable="0" parent="edge-L_Admin_AdminPanel_1">
                  <mxGeometry x="-0.2" y="10" relative="1" as="geometry">
                    <mxPoint as="offset"/>
                  </mxGeometry>
                </mxCell>
<mxCell id="edge-L_AdminPanel_PatientManagement_2" style="edgeStyle=orthogonalEdgeStyle;rounded=1;orthogonalLoop=1;jettySize=auto;html=1;strokeColor=#808080;strokeWidth=2;jumpStyle=arc;jumpSize=10;spacing=15;labelBackgroundColor=white;labelBorderColor=none" edge="1" parent="1" source="AdminPanel" target="PatientManagement">
                  <mxGeometry relative="1" as="geometry"/>
                </mxCell>
                <mxCell id="edge-L_AdminPanel_PatientManagement_2_label" value="Uses" style="edgeLabel;html=1;align=center;verticalAlign=middle;resizable=0;points=[];" vertex="1" connectable="0" parent="edge-L_AdminPanel_PatientManagement_2">
                  <mxGeometry x="-0.2" y="10" relative="1" as="geometry">
                    <mxPoint as="offset"/>
                  </mxGeometry>
                </mxCell>
<mxCell id="edge-L_AdminPanel_TreatmentManager_3" style="edgeStyle=orthogonalEdgeStyle;rounded=1;orthogonalLoop=1;jettySize=auto;html=1;strokeColor=#808080;strokeWidth=2;jumpStyle=arc;jumpSize=10;spacing=15;labelBackgroundColor=white;labelBorderColor=none" edge="1" parent="1" source="AdminPanel" target="TreatmentManager">
                  <mxGeometry relative="1" as="geometry"/>
                </mxCell>
                <mxCell id="edge-L_AdminPanel_TreatmentManager_3_label" value="Uses" style="edgeLabel;html=1;align=center;verticalAlign=middle;resizable=0;points=[];" vertex="1" connectable="0" parent="edge-L_AdminPanel_TreatmentManager_3">
                  <mxGeometry x="-0.2" y="10" relative="1" as="geometry">
                    <mxPoint as="offset"/>
                  </mxGeometry>
                </mxCell>
<mxCell id="edge-L_AdminPanel_LanguageSwitcher_4" style="edgeStyle=orthogonalEdgeStyle;rounded=1;orthogonalLoop=1;jettySize=auto;html=1;strokeColor=#808080;strokeWidth=2;jumpStyle=arc;jumpSize=10;spacing=15;labelBackgroundColor=white;labelBorderColor=none" edge="1" parent="1" source="AdminPanel" target="LanguageSwitcher">
                  <mxGeometry relative="1" as="geometry"/>
                </mxCell>
                <mxCell id="edge-L_AdminPanel_LanguageSwitcher_4_label" value="Configures" style="edgeLabel;html=1;align=center;verticalAlign=middle;resizable=0;points=[];" vertex="1" connectable="0" parent="edge-L_AdminPanel_LanguageSwitcher_4">
                  <mxGeometry x="-0.2" y="10" relative="1" as="geometry">
                    <mxPoint as="offset"/>
                  </mxGeometry>
                </mxCell>
<mxCell id="edge-L_PatientManagement_Forms_5" style="edgeStyle=orthogonalEdgeStyle;rounded=1;orthogonalLoop=1;jettySize=auto;html=1;strokeColor=#808080;strokeWidth=2;jumpStyle=arc;jumpSize=10;spacing=15;labelBackgroundColor=white;labelBorderColor=none" edge="1" parent="1" source="PatientManagement" target="Forms">
                  <mxGeometry relative="1" as="geometry"/>
                </mxCell>
                <mxCell id="edge-L_PatientManagement_Forms_5_label" value="Utilizes" style="edgeLabel;html=1;align=center;verticalAlign=middle;resizable=0;points=[];" vertex="1" connectable="0" parent="edge-L_PatientManagement_Forms_5">
                  <mxGeometry x="-0.2" y="10" relative="1" as="geometry">
                    <mxPoint as="offset"/>
                  </mxGeometry>
                </mxCell>
<mxCell id="edge-L_PatientManagement_Tables_6" style="edgeStyle=orthogonalEdgeStyle;rounded=1;orthogonalLoop=1;jettySize=auto;html=1;strokeColor=#808080;strokeWidth=2;jumpStyle=arc;jumpSize=10;spacing=15;labelBackgroundColor=white;labelBorderColor=none" edge="1" parent="1" source="PatientManagement" target="Tables">
                  <mxGeometry relative="1" as="geometry"/>
                </mxCell>
                <mxCell id="edge-L_PatientManagement_Tables_6_label" value="Utilizes" style="edgeLabel;html=1;align=center;verticalAlign=middle;resizable=0;points=[];" vertex="1" connectable="0" parent="edge-L_PatientManagement_Tables_6">
                  <mxGeometry x="-0.2" y="10" relative="1" as="geometry">
                    <mxPoint as="offset"/>
                  </mxGeometry>
                </mxCell>
<mxCell id="edge-L_WebServer_Router_7" style="edgeStyle=orthogonalEdgeStyle;rounded=1;orthogonalLoop=1;jettySize=auto;html=1;strokeColor=#808080;strokeWidth=2;jumpStyle=arc;jumpSize=10;spacing=15;labelBackgroundColor=white;labelBorderColor=none" edge="1" parent="1" source="WebServer" target="Router">
                  <mxGeometry relative="1" as="geometry"/>
                </mxCell>
                <mxCell id="edge-L_WebServer_Router_7_label" value="Routes requests through" style="edgeLabel;html=1;align=center;verticalAlign=middle;resizable=0;points=[];" vertex="1" connectable="0" parent="edge-L_WebServer_Router_7">
                  <mxGeometry x="-0.2" y="10" relative="1" as="geometry">
                    <mxPoint as="offset"/>
                  </mxGeometry>
                </mxCell>
<mxCell id="edge-L_Router_Controllers_8" style="edgeStyle=orthogonalEdgeStyle;rounded=1;orthogonalLoop=1;jettySize=auto;html=1;strokeColor=#808080;strokeWidth=2;jumpStyle=arc;jumpSize=10;spacing=15;labelBackgroundColor=white;labelBorderColor=none" edge="1" parent="1" source="Router" target="Controllers">
                  <mxGeometry relative="1" as="geometry"/>
                </mxCell>
                <mxCell id="edge-L_Router_Controllers_8_label" value="Dispatches to" style="edgeLabel;html=1;align=center;verticalAlign=middle;resizable=0;points=[];" vertex="1" connectable="0" parent="edge-L_Router_Controllers_8">
                  <mxGeometry x="-0.2" y="10" relative="1" as="geometry">
                    <mxPoint as="offset"/>
                  </mxGeometry>
                </mxCell>
<mxCell id="edge-L_Controllers_Models_9" style="edgeStyle=orthogonalEdgeStyle;rounded=1;orthogonalLoop=1;jettySize=auto;html=1;strokeColor=#808080;strokeWidth=2;jumpStyle=arc;jumpSize=10;spacing=15;labelBackgroundColor=white;labelBorderColor=none" edge="1" parent="1" source="Controllers" target="Models">
                  <mxGeometry relative="1" as="geometry"/>
                </mxCell>
                <mxCell id="edge-L_Controllers_Models_9_label" value="Uses" style="edgeLabel;html=1;align=center;verticalAlign=middle;resizable=0;points=[];" vertex="1" connectable="0" parent="edge-L_Controllers_Models_9">
                  <mxGeometry x="-0.2" y="10" relative="1" as="geometry">
                    <mxPoint as="offset"/>
                  </mxGeometry>
                </mxCell>
<mxCell id="edge-L_Models_ServiceProviders_10" style="edgeStyle=orthogonalEdgeStyle;rounded=1;orthogonalLoop=1;jettySize=auto;html=1;strokeColor=#808080;strokeWidth=2;jumpStyle=arc;jumpSize=10;spacing=15;labelBackgroundColor=white;labelBorderColor=none" edge="1" parent="1" source="Models" target="ServiceProviders">
                  <mxGeometry relative="1" as="geometry"/>
                </mxCell>
                <mxCell id="edge-L_Models_ServiceProviders_10_label" value="Managed by" style="edgeLabel;html=1;align=center;verticalAlign=middle;resizable=0;points=[];" vertex="1" connectable="0" parent="edge-L_Models_ServiceProviders_10">
                  <mxGeometry x="-0.2" y="10" relative="1" as="geometry">
                    <mxPoint as="offset"/>
                  </mxGeometry>
                </mxCell>
<mxCell id="edge-L_Models_Database_11" style="edgeStyle=orthogonalEdgeStyle;rounded=1;orthogonalLoop=1;jettySize=auto;html=1;strokeColor=#808080;strokeWidth=2;jumpStyle=arc;jumpSize=10;spacing=15;labelBackgroundColor=white;labelBorderColor=none" edge="1" parent="1" source="Models" target="Database">
                  <mxGeometry relative="1" as="geometry"/>
                </mxCell>
                <mxCell id="edge-L_Models_Database_11_label" value="Queries" style="edgeLabel;html=1;align=center;verticalAlign=middle;resizable=0;points=[];" vertex="1" connectable="0" parent="edge-L_Models_Database_11">
                  <mxGeometry x="-0.2" y="10" relative="1" as="geometry">
                    <mxPoint as="offset"/>
                  </mxGeometry>
                </mxCell>
<mxCell id="edge-L_Models_ModelRelations_12" style="edgeStyle=orthogonalEdgeStyle;rounded=1;orthogonalLoop=1;jettySize=auto;html=1;strokeColor=#808080;strokeWidth=2;jumpStyle=arc;jumpSize=10;spacing=15;labelBackgroundColor=white;labelBorderColor=none" edge="1" parent="1" source="Models" target="ModelRelations">
                  <mxGeometry relative="1" as="geometry"/>
                </mxCell>
                <mxCell id="edge-L_Models_ModelRelations_12_label" value="Uses" style="edgeLabel;html=1;align=center;verticalAlign=middle;resizable=0;points=[];" vertex="1" connectable="0" parent="edge-L_Models_ModelRelations_12">
                  <mxGeometry x="-0.2" y="10" relative="1" as="geometry">
                    <mxPoint as="offset"/>
                  </mxGeometry>
                </mxCell>
<mxCell id="edge-L_ModelRelations_QueryBuilder_13" style="edgeStyle=orthogonalEdgeStyle;rounded=1;orthogonalLoop=1;jettySize=auto;html=1;strokeColor=#808080;strokeWidth=2;jumpStyle=arc;jumpSize=10;spacing=15;labelBackgroundColor=white;labelBorderColor=none" edge="1" parent="1" source="ModelRelations" target="QueryBuilder">
                  <mxGeometry relative="1" as="geometry"/>
                </mxCell>
                <mxCell id="edge-L_ModelRelations_QueryBuilder_13_label" value="Executes" style="edgeLabel;html=1;align=center;verticalAlign=middle;resizable=0;points=[];" vertex="1" connectable="0" parent="edge-L_ModelRelations_QueryBuilder_13">
                  <mxGeometry x="-0.2" y="10" relative="1" as="geometry">
                    <mxPoint as="offset"/>
                  </mxGeometry>
                </mxCell>
<mxCell id="edge-L_QueryBuilder_Database_14" style="edgeStyle=orthogonalEdgeStyle;rounded=1;orthogonalLoop=1;jettySize=auto;html=1;strokeColor=#808080;strokeWidth=2;jumpStyle=arc;jumpSize=10;spacing=15;labelBackgroundColor=white;labelBorderColor=none" edge="1" parent="1" source="QueryBuilder" target="Database">
                  <mxGeometry relative="1" as="geometry"/>
                </mxCell>
                <mxCell id="edge-L_QueryBuilder_Database_14_label" value="Manages" style="edgeLabel;html=1;align=center;verticalAlign=middle;resizable=0;points=[];" vertex="1" connectable="0" parent="edge-L_QueryBuilder_Database_14">
                  <mxGeometry x="-0.2" y="10" relative="1" as="geometry">
                    <mxPoint as="offset"/>
                  </mxGeometry>
                </mxCell>
<mxCell id="edge-L_Migrations_Database_15" style="edgeStyle=orthogonalEdgeStyle;rounded=1;orthogonalLoop=1;jettySize=auto;html=1;strokeColor=#808080;strokeWidth=2;jumpStyle=arc;jumpSize=10;spacing=15;labelBackgroundColor=white;labelBorderColor=none" edge="1" parent="1" source="Migrations" target="Database">
                  <mxGeometry relative="1" as="geometry"/>
                </mxCell>
                <mxCell id="edge-L_Migrations_Database_15_label" value="Defines" style="edgeLabel;html=1;align=center;verticalAlign=middle;resizable=0;points=[];" vertex="1" connectable="0" parent="edge-L_Migrations_Database_15">
                  <mxGeometry x="-0.2" y="10" relative="1" as="geometry">
                    <mxPoint as="offset"/>
                  </mxGeometry>
                </mxCell>
<mxCell id="edge-L_ServiceProviders_Cache_16" style="edgeStyle=orthogonalEdgeStyle;rounded=1;orthogonalLoop=1;jettySize=auto;html=1;strokeColor=#808080;strokeWidth=2;jumpStyle=arc;jumpSize=10;spacing=15;labelBackgroundColor=white;labelBorderColor=none" edge="1" parent="1" source="ServiceProviders" target="Cache">
                  <mxGeometry relative="1" as="geometry"/>
                </mxCell>
                <mxCell id="edge-L_ServiceProviders_Cache_16_label" value="Configures" style="edgeLabel;html=1;align=center;verticalAlign=middle;resizable=0;points=[];" vertex="1" connectable="0" parent="edge-L_ServiceProviders_Cache_16">
                  <mxGeometry x="-0.2" y="10" relative="1" as="geometry">
                    <mxPoint as="offset"/>
                  </mxGeometry>
                </mxCell>
<mxCell id="edge-L_PatientManagement_Controllers_17" style="edgeStyle=orthogonalEdgeStyle;rounded=1;orthogonalLoop=1;jettySize=auto;html=1;strokeColor=#808080;strokeWidth=2;jumpStyle=arc;jumpSize=10;spacing=15;labelBackgroundColor=white;labelBorderColor=none" edge="1" parent="1" source="PatientManagement" target="Controllers">
                  <mxGeometry relative="1" as="geometry"/>
                </mxCell>
                <mxCell id="edge-L_PatientManagement_Controllers_17_label" value="Interacts with" style="edgeLabel;html=1;align=center;verticalAlign=middle;resizable=0;points=[];" vertex="1" connectable="0" parent="edge-L_PatientManagement_Controllers_17">
                  <mxGeometry x="-0.2" y="10" relative="1" as="geometry">
                    <mxPoint as="offset"/>
                  </mxGeometry>
                </mxCell>
<mxCell id="edge-L_TreatmentManager_Models_18" style="edgeStyle=orthogonalEdgeStyle;rounded=1;orthogonalLoop=1;jettySize=auto;html=1;strokeColor=#808080;strokeWidth=2;jumpStyle=arc;jumpSize=10;spacing=15;labelBackgroundColor=white;labelBorderColor=none" edge="1" parent="1" source="TreatmentManager" target="Models">
                  <mxGeometry relative="1" as="geometry"/>
                </mxCell>
                <mxCell id="edge-L_TreatmentManager_Models_18_label" value="Manages" style="edgeLabel;html=1;align=center;verticalAlign=middle;resizable=0;points=[];" vertex="1" connectable="0" parent="edge-L_TreatmentManager_Models_18">
                  <mxGeometry x="-0.2" y="10" relative="1" as="geometry">
                    <mxPoint as="offset"/>
                  </mxGeometry>
                </mxCell>
<mxCell id="edge-L_Forms_Models_19" style="edgeStyle=orthogonalEdgeStyle;rounded=1;orthogonalLoop=1;jettySize=auto;html=1;strokeColor=#808080;strokeWidth=2;jumpStyle=arc;jumpSize=10;spacing=15;labelBackgroundColor=white;labelBorderColor=none" edge="1" parent="1" source="Forms" target="Models">
                  <mxGeometry relative="1" as="geometry"/>
                </mxCell>
                <mxCell id="edge-L_Forms_Models_19_label" value="Validates" style="edgeLabel;html=1;align=center;verticalAlign=middle;resizable=0;points=[];" vertex="1" connectable="0" parent="edge-L_Forms_Models_19">
                  <mxGeometry x="-0.2" y="10" relative="1" as="geometry">
                    <mxPoint as="offset"/>
                  </mxGeometry>
                </mxCell>
<mxCell id="edge-L_Tables_Models_20" style="edgeStyle=orthogonalEdgeStyle;rounded=1;orthogonalLoop=1;jettySize=auto;html=1;strokeColor=#808080;strokeWidth=2;jumpStyle=arc;jumpSize=10;spacing=15;labelBackgroundColor=white;labelBorderColor=none" edge="1" parent="1" source="Tables" target="Models">
                  <mxGeometry relative="1" as="geometry"/>
                </mxCell>
                <mxCell id="edge-L_Tables_Models_20_label" value="Displays" style="edgeLabel;html=1;align=center;verticalAlign=middle;resizable=0;points=[];" vertex="1" connectable="0" parent="edge-L_Tables_Models_20">
                  <mxGeometry x="-0.2" y="10" relative="1" as="geometry">
                    <mxPoint as="offset"/>
                  </mxGeometry>
                </mxCell>
            </root>
          </mxGraphModel>
        </diagram>
      </mxfile>